<?xml version="1.0" encoding="utf-8"?>
<COLLADA version="1.4.0" xmlns="http://www.collada.org/2005/11/COLLADASchema">
	<asset>
		<contributor>
			<author> SimLab Soft http://www.simLab-soft.com </author>
			<authoring_tool>SimLab Collada Exporter for Fusion 360</authoring_tool>
		</contributor>
		<created>2026-04-05T14:26:23</created>
		<modified>2026-04-05T14:26:23</modified>
		<unit meter="1.000000000000000" name="Meter"/>
		<up_axis>Z_UP</up_axis>
	</asset>
	<library_visual_scenes>
		<visual_scene id="Scene" name="Scene">
			<node>
				<matrix> 1 0 0 0 0 1 0 0 0 0 1 0 0 0 0 1 </matrix>
				<node  id="ID0" name="Camera_2">
					<matrix> 1 0 0 0 0 0 -1 -152.66 0 1 0 -6.23849 0 0 0 1 </matrix>
					<instance_camera url="#ID1" />
				</node>
				<node  id="ID2" name="Untitled_(Assembly)">
					<matrix> 0.01 0 0 0 0 0 -0.01 0 0 0.01 0 0 0 0 0 1 </matrix>
					<node  id="ID3" name="Untitled">
						<matrix> 1 0 0 0 0 0 -1 -598.849 0 1 0 626.013 0 0 0 1 </matrix>
						<node  id="ID4" name="Body2">
							<matrix> 1 0 0 0 0 1 0 0 0 0 1 0 0 0 0 1 </matrix>
							<node  id="ID5" name="Body2_Steel_-_Satin">
								<matrix> 1 0 0 0 0 1 0 0 0 0 1 0 0 0 0 1 </matrix>
								<instance_geometry url="#ID6">
									<bind_material>
										<technique_common>
											<instance_material symbol="Steel_-_Satin" target="#ID7">
												<bind_vertex_input semantic="UVSET0" input_semantic="TEXCOORD" input_set="0" />
											</instance_material>
										</technique_common>
									</bind_material>
								</instance_geometry>
							</node>
							<node  id="ID8" name="Body2_Powder_Coat_(Red)">
								<matrix> 1 0 0 0 0 1 0 0 0 0 1 0 0 0 0 1 </matrix>
								<instance_geometry url="#ID9">
									<bind_material>
										<technique_common>
											<instance_material symbol="Powder_Coat_(Red)" target="#ID10">
												<bind_vertex_input semantic="UVSET0" input_semantic="TEXCOORD" input_set="0" />
											</instance_material>
										</technique_common>
									</bind_material>
								</instance_geometry>
							</node>
							<node  id="ID11" name="Body2_Powder_Coat_(Blue)">
								<matrix> 1 0 0 0 0 1 0 0 0 0 1 0 0 0 0 1 </matrix>
								<instance_geometry url="#ID12">
									<bind_material>
										<technique_common>
											<instance_material symbol="Powder_Coat_(Blue)" target="#ID13">
												<bind_vertex_input semantic="UVSET0" input_semantic="TEXCOORD" input_set="0" />
											</instance_material>
										</technique_common>
									</bind_material>
								</instance_geometry>
							</node>
							<node  id="ID14" name="Body2_Powder_Coat_(Green)">
								<matrix> 1 0 0 0 0 1 0 0 0 0 1 0 0 0 0 1 </matrix>
								<instance_geometry url="#ID15">
									<bind_material>
										<technique_common>
											<instance_material symbol="Powder_Coat_(Green)" target="#ID16">
												<bind_vertex_input semantic="UVSET0" input_semantic="TEXCOORD" input_set="0" />
											</instance_material>
										</technique_common>
									</bind_material>
								</instance_geometry>
							</node>
							<node  id="ID17" name="Body2_Powder_Coat_(Yellow)">
								<matrix> 1 0 0 0 0 1 0 0 0 0 1 0 0 0 0 1 </matrix>
								<instance_geometry url="#ID18">
									<bind_material>
										<technique_common>
											<instance_material symbol="Powder_Coat_(Yellow)" target="#ID19">
												<bind_vertex_input semantic="UVSET0" input_semantic="TEXCOORD" input_set="0" />
											</instance_material>
										</technique_common>
									</bind_material>
								</instance_geometry>
							</node>
						</node>
					</node>
				</node>
			</node>
		</visual_scene>
	</library_visual_scenes>
	<library_cameras>
		<camera id="ID1" name="Camera_2">
			<optics>
				<technique_common>
					<perspective>
						<yfov>45</yfov>
						<aspect_ratio>1.33333</aspect_ratio>
						<znear>1.72037</znear>
						<zfar>17203.7</zfar>
					</perspective>
				</technique_common>
			</optics>
			<extra>
				<technique  >
					<camera_target type="float">0 -0.260131 -6.23849</camera_target>
				</technique>
			</extra>
		</camera >
	</library_cameras>
	<library_geometries>
		<geometry id="ID6" name="geo_0">
			<mesh>
				<source id="geo_0-Position">
					<float_array count="1872" id="geo_0-Position-array">-150 -500 0 550 -600 0 -50 -500 0 50 -400 0 50 -350 0 -150 -150 0 -250 -400 0 -450 -400 0 -550 -500 0 -550 -150 0 -450 -50 0 -800 -50 0 -250 -50 0 100 -150 0 200 -50 0 200 -350 0 100 -250 0 -50 -250 0 0 -950 0 -100 -850 0 -400 -950 0 -500 -850 0 -500 -1000 0 0 -750 0 -100 -650 0 200 -750 0 300 -650 0 300 -850 0 200 -950 0 650 -950 0 650 -500 0 550 -850 0 700 -500 0 800 -400 0 800 -850 0 700 -950 0 995 -950 0 995 -200 0 900 -300 0 900 -850 0 500 -200 0 400 -300 0 500 -150 0 400 -50 0 760 -50 0 900 -150 0 900 0 0 995 0 0 700 400 0 760 0 0 700 695 0 995 1295 0 700 705 0 400 1295 0 400 705 0 -700 695 0 -995 400 0 -700 705 0 -995 1295 0 -400 1295 0 -400 705 0 700 0 0 -700 -150 0 -800 -600 0 -700 -500 0 -550 -1000 0 -550 -1300 0 -350 -1300 0 -400 -1000 0 -350 -1000 0 -700 -1300 0 -700 -1350 0 -568.371 -1507.87 0 -560.359 -1498.41 0 -750 -1350 0 -599.488 -1587.61 0 -597.954 -1575.31 0 -595.41 -1563.18 0 -750 -1300 0 -850 -1500 0 -850 -1550 0 -800 -1750 0 -600 -1600 0 -599.488 -1612.39 0 -597.954 -1624.69 0 -595.41 -1636.82 0 -591.873 -1648.7 0 -800 -1800 0 -587.366 -1660.25 0 -581.921 -1671.39 0 -575.575 -1682.04 0 -568.371 -1692.13 0 -560.359 -1701.59 0 -551.592 -1710.36 0 -542.132 -1718.37 0 -532.042 -1725.57 0 -521.392 -1731.92 0 -510.254 -1737.37 0 -498.705 -1741.87 0 -486.823 -1745.41 0 -474.689 -1747.95 0 -462.387 -1749.49 0 -100 -1900 0 -450 -1750 0 -437.613 -1749.49 0 -425.311 -1747.95 0 -413.177 -1745.41 0 -401.295 -1741.87 0 -389.746 -1737.37 0 -378.608 -1731.92 0 -367.958 -1725.57 0 -357.868 -1718.37 0 -348.408 -1710.36 0 -339.641 -1701.59 0 -331.629 -1692.13 0 -150 -1700 0 -324.425 -1682.04 0 -318.079 -1671.39 0 -312.634 -1660.25 0 -308.127 -1648.7 0 -304.59 -1636.82 0 -302.046 -1624.69 0 -150 -1650 0 -300.512 -1612.39 0 -300 -1600 0 -300.512 -1587.61 0 -302.046 -1575.31 0 -200 -1350 0 -304.59 -1563.18 0 -250 -1350 0 -308.127 -1551.3 0 -312.634 -1539.75 0 -318.079 -1528.61 0 -324.425 -1517.96 0 -331.629 -1507.87 0 -339.641 -1498.41 0 -348.408 -1489.64 0 -357.868 -1481.63 0 -367.958 -1474.43 0 -378.608 -1468.08 0 -389.746 -1462.63 0 -401.295 -1458.13 0 -413.177 -1454.59 0 -425.311 -1452.05 0 -437.613 -1450.51 0 -450 -1450 0 -462.387 -1450.51 0 -474.689 -1452.05 0 -486.823 -1454.59 0 -498.705 -1458.13 0 -510.254 -1462.63 0 -521.392 -1468.08 0 -532.042 -1474.43 0 -542.132 -1481.63 0 -551.592 -1489.64 0 -995 -1300 0 -900 -1500 0 -900 -1550 0 -995 -1900 0 -850 -1750 0 -850 -1800 0 -100 -2200 0 91.5232 -2200 0 91.5232 -1900 0 -100 -1700 0 -100 -1650 0 -50 -1450 0 -100 -1450 0 -995 -2200 0 -995 -2495 0 995 -2495 0 995 -2200 0 395 -1900 0 200 -1750 0 200 -1650 0 150 -1450 0 250 -1450 0 300 -1650 0 395 -1500 0 300 -1750 0 250 -1350 0 405 -1500 0 750 -1500 0 550 -1650 0 650 -1650 0 405 -1900 0 550 -1750 0 650 -1750 0 995 -1900 0 750 -1600 0 850 -1600 0 995 -1300 0 850 -1500 0 -200 -1300 0 150 -1350 0 -50 -1400 0 -100 -1400 0 -250 -1300 0 -591.873 -1551.3 0 -587.366 -1539.75 0 -581.921 -1528.61 0 -575.575 -1517.96 0 -750 -1300 0 -750 -1350 0 -750 -1300 50 -750 -1350 50 -750 -1300 50 -995 -1300 50 -750 -1300 0 -995 -1300 0 -700 -1300 0 -550 -1300 0 -700 -1300 50 -550 -1300 50 -250 -1300 0 -250 -1350 0 -250 -1300 50 -250 -1350 50 -250 -1300 50 -350 -1300 50 -250 -1300 0 -350 -1300 0 -200 -1300 0 995 -1300 0 -200 -1300 50 995 -1300 50 405 -1900 0 405 -1500 0 405 -1900 50 405 -1500 50 395 -1500 0 395 -1900 0 395 -1500 50 395 -1900 50 395 -1500 0 395 -1500 50 405 -1500 0 405 -1500 50 395 -1900 0 91.5232 -1900 0 395 -1900 50 91.5232 -1900 50 405 -1900 50 995 -1900 50 405 -1900 0 995 -1900 0 400 705 50 700 705 50 400 705 0 700 705 0 -700 695 0 -700 695 50 -700 705 0 -700 705 50 -400 705 0 -700 705 0 -400 705 50 -700 705 50 -700 695 0 700 695 0 -700 695 50 700 695 50 700 695 50 700 695 0 700 705 50 700 705 0 -400 705 50 -400 1295 50 -400 705 0 -400 1295 0 -995 -2200 50 -995 -2495 50 -995 -2200 0 -995 -2495 0 -995 -1300 50 -995 -1900 50 -995 -1300 0 -995 -1900 0 400 1295 0 995 1295 0 400 1295 50 995 1295 50 995 0 50 995 1295 50 995 0 0 995 1295 0 995 -950 50 995 -200 50 995 -950 0 995 -200 0 995 -2200 0 995 -2495 0 995 -2200 50 995 -2495 50 -400 1295 50 -995 1295 50 -400 1295 0 -995 1295 0 1000 1300 50 1000 1300 0 1000 1305 50 1000 1305 0 -1000 1300 0 -1000 1300 50 -1000 1305 0 -1000 1305 50 1000 1300 0 1000 1300 50 1005 1300 0 1005 1300 50 -1000 1300 50 -1000 1300 0 -1005 1300 50 -1005 1300 0 995 -1300 0 995 -1900 0 995 -1300 50 995 -1900 50 995 -2495 0 -995 -2495 0 995 -2495 50 -995 -2495 50 -995 400 0 -995 1295 0 -995 400 50 -995 1295 50 995 -200 50 500 -200 50 995 -200 0 500 -200 0 900 0 0 900 -150 0 900 0 50 900 -150 50 995 0 0 900 0 0 995 0 50 900 0 50 500 -150 0 500 -200 0 500 -150 50 500 -200 50 900 -150 0 500 -150 0 900 -150 50 500 -150 50 400 705 0 400 1295 0 400 705 50 400 1295 50 995 -2200 50 91.5232 -2200 50 995 -2200 0 91.5232 -2200 0 91.5232 -1900 0 91.5232 -2200 0 91.5232 -1900 50 91.5232 -2200 50 -995 -1900 50 -100 -1900 50 -995 -1900 0 -100 -1900 0 -995 -2200 0 -100 -2200 0 -995 -2200 50 -100 -2200 50 -100 -2200 0 -100 -1900 0 -100 -2200 50 -100 -1900 50 -995 400 50 700 400 50 -995 400 0 700 400 0 -550 -1000 0 -500 -1000 0 -550 -1000 50 -500 -1000 50 -550 -1300 0 -550 -1000 0 -550 -1300 50 -550 -1000 50 700 0 0 700 400 0 700 0 50 700 400 50 760 0 0 700 0 0 760 0 50 700 0 50 760 -50 0 760 0 0 760 -50 50 760 0 50 400 -50 0 760 -50 0 400 -50 50 760 -50 50 400 -300 0 400 -50 0 400 -300 50 400 -50 50 900 -300 0 400 -300 0 900 -300 50 400 -300 50 900 -850 0 900 -300 0 900 -850 50 900 -300 50 800 -850 0 900 -850 0 800 -850 50 900 -850 50 800 -400 0 800 -850 0 800 -400 50 800 -850 50 50 -400 0 800 -400 0 50 -400 50 800 -400 50 50 -350 0 50 -400 0 50 -350 50 50 -400 50 200 -350 0 50 -350 0 200 -350 50 50 -350 50 200 -50 0 200 -350 0 200 -50 50 200 -350 50 -250 -50 0 200 -50 0 -250 -50 50 200 -50 50 -250 -400 0 -250 -50 0 -250 -400 50 -250 -50 50 -450 -400 0 -250 -400 0 -450 -400 50 -250 -400 50 -450 -50 0 -450 -400 0 -450 -50 50 -450 -400 50 -800 -50 0 -450 -50 0 -800 -50 50 -450 -50 50 -800 -600 0 -800 -50 0 -800 -600 50 -800 -50 50 550 -600 0 -800 -600 0 550 -600 50 -800 -600 50 550 -850 0 550 -600 0 550 -850 50 550 -600 50 300 -850 0 550 -850 0 300 -850 50 550 -850 50 300 -650 0 300 -850 0 300 -650 50 300 -850 50 -100 -650 0 300 -650 0 -100 -650 50 300 -650 50 -100 -850 0 -100 -650 0 -100 -850 50 -100 -650 50 -500 -850 0 -100 -850 0 -500 -850 50 -100 -850 50 -500 -1000 0 -500 -850 0 -500 -1000 50 -500 -850 50 0 -950 0 -400 -950 0 0 -950 50 -400 -950 50 0 -750 0 0 -950 0 0 -750 50 0 -950 50 200 -750 0 0 -750 0 200 -750 50 0 -750 50 200 -950 0 200 -750 0 200 -950 50 200 -750 50 650 -950 0 200 -950 0 650 -950 50 200 -950 50 650 -500 0 650 -950 0 650 -500 50 650 -950 50 700 -500 0 650 -500 0 700 -500 50 650 -500 50 700 -950 0 700 -500 0 700 -950 50 700 -500 50 995 -950 0 700 -950 0 995 -950 50 700 -950 50 -350 -1000 0 -350 -1300 0 -350 -1000 50 -350 -1300 50 -400 -1000 0 -350 -1000 0 -400 -1000 50 -350 -1000 50 -400 -950 0 -400 -1000 0 -400 -950 50 -400 -1000 50 1000 1300 0 1005 1300 0 1000 1305 0 1005 1305 0 -1005 1300 0 -1000 1300 0 -1005 1305 0 -1000 1305 0 -150 -500 0 -50 -500 0 -150 -500 50 -50 -500 50 -150 -150 0 -150 -500 0 -150 -150 50 -150 -500 50 100 -150 0 -150 -150 0 100 -150 50 -150 -150 50 100 -250 0 100 -150 0 100 -250 50 100 -150 50 -50 -250 0 100 -250 0 -50 -250 50 100 -250 50 -50 -500 0 -50 -250 0 -50 -500 50 -50 -250 50 -50 -500 50 -50 -250 50 -150 -500 50 -150 -150 50 100 -150 50 100 -250 50 1005 1305 0 1005 1300 0 1005 1305 -0.001 1005 -2505 -0.001 1005 -2505 50 1005 1300 50 -1005 1305 0 -1000 1305 0 -1005 1305 -0.001 1000 1305 0 1005 1305 -0.001 1005 1305 0 -1000 1305 50 1000 1305 50 -1005 1305 0 -1005 1305 -0.001 -1005 1300 0 -1005 -2505 -0.001 -1005 -2505 50 -1005 1300 50 -1005 -2505 -0.001 1005 -2505 -0.001 -1005 -2505 50 1005 -2505 50 1005 -2505 -0.001 -1005 -2505 -0.001 1005 1305 -0.001 -1005 1305 -0.001 -550 -500 0 -550 -150 0 -550 -500 50 -550 -150 50 -700 -500 0 -550 -500 0 -700 -500 50 -550 -500 50 -700 -150 0 -700 -500 0 -700 -150 50 -700 -500 50 -550 -150 0 -700 -150 0 -550 -150 50 -700 -150 50 -550 -150 50 -700 -150 50 -550 -500 50 -700 -500 50 </float_array>
					<technique_common>
						<accessor count="624" source="#geo_0-Position-array" stride="3">
							<param name="X" type="float"/>
							<param name="Y" type="float"/>
							<param name="Z" type="float"/>
						</accessor>
					</technique_common>
				</source>
				<source id="geo_0-Normals">
					<float_array count="1872" id="geo_0-Normals-array">0 0 1 0 0 1 0 0 1 0 0 1 0 0 1 0 0 1 0 0 1 0 0 1 0 0 1 0 0 1 0 0 1 0 0 1 0 0 1 0 0 1 0 0 1 0 0 1 0 0 1 0 0 1 0 0 1 0 0 1 0 0 1 0 0 1 0 0 1 0 0 1 0 0 1 0 0 1 0 0 1 0 0 1 0 0 1 0 0 1 0 0 1 0 0 1 0 0 1 0 0 1 0 0 1 0 0 1 0 0 1 0 0 1 0 0 1 0 0 1 0 0 1 0 0 1 0 0 1 0 0 1 0 0 1 0 0 1 0 0 1 0 0 1 0 0 1 0 0 1 0 0 1 0 0 1 0 0 1 0 0 1 0 0 1 0 0 1 0 0 1 0 0 1 0 0 1 0 0 1 0 0 1 0 0 1 0 0 1 0 0 1 0 0 1 0 0 1 0 0 1 0 0 1 0 0 1 0 0 1 0 0 1 0 0 1 0 0 1 0 0 1 0 0 1 0 0 1 0 0 1 0 0 1 0 0 1 0 0 1 0 0 1 0 0 1 0 0 1 0 0 1 0 0 1 0 0 1 0 0 1 0 0 1 0 0 1 0 0 1 0 0 1 0 0 1 0 0 1 0 0 1 0 0 1 0 0 1 0 0 1 0 0 1 0 0 1 0 0 1 0 0 1 0 0 1 0 0 1 0 0 1 0 0 1 0 0 1 0 0 1 0 0 1 0 0 1 0 0 1 0 0 1 0 0 1 0 0 1 0 0 1 0 0 1 0 0 1 0 0 1 0 0 1 0 0 1 0 0 1 0 0 1 0 0 1 0 0 1 0 0 1 0 0 1 0 0 1 0 0 1 0 0 1 0 0 1 0 0 1 0 0 1 0 0 1 0 0 1 0 0 1 0 0 1 0 0 1 0 0 1 0 0 1 0 0 1 0 0 1 0 0 1 0 0 1 0 0 1 0 0 1 0 0 1 0 0 1 0 0 1 0 0 1 0 0 1 0 0 1 0 0 1 0 0 1 0 0 1 0 0 1 0 0 1 0 0 1 0 0 1 0 0 1 0 0 1 0 0 1 0 0 1 0 0 1 0 0 1 0 0 1 0 0 1 0 0 1 0 0 1 0 0 1 0 0 1 0 0 1 0 0 1 0 0 1 0 0 1 0 0 1 0 0 1 0 0 1 0 0 1 0 0 1 0 0 1 0 0 1 0 0 1 0 0 1 0 0 1 0 0 1 0 0 1 0 0 1 0 0 1 0 0 1 0 0 1 0 0 1 0 0 1 0 0 1 0 0 1 0 0 1 0 0 1 0 0 1 0 0 1 0 0 1 0 0 1 0 0 1 0 0 1 0 0 1 -1 0 0 -1 0 0 -1 0 0 -1 0 0 0 -1 0 0 -1 0 0 -1 0 0 -1 0 0 -1 0 0 -1 0 0 -1 0 0 -1 0 -1 0 0 -1 0 0 -1 0 0 -1 0 0 0 -1 0 0 -1 0 0 -1 0 0 -1 0 0 -1 0 0 -1 0 0 -1 0 0 -1 0 1 0 0 1 0 0 1 0 0 1 0 0 -1 0 0 -1 0 0 -1 0 0 -1 0 0 0 1 0 0 1 0 0 1 0 0 1 0 0 1 0 0 1 0 0 1 0 0 1 0 0 1 0 0 1 0 0 1 0 0 1 0 0 1 0 0 1 0 0 1 0 0 1 0 -1 0 0 -1 0 0 -1 0 0 -1 0 0 0 1 0 0 1 0 0 1 0 0 1 0 0 -1 0 0 -1 0 0 -1 0 0 -1 0 1 0 0 1 0 0 1 0 0 1 0 0 -1 0 0 -1 0 0 -1 0 0 -1 0 0 1 0 0 1 0 0 1 0 0 1 0 0 1 0 0 1 0 0 1 0 0 1 0 0 0 -1 0 0 -1 0 0 -1 0 0 -1 0 -1 0 0 -1 0 0 -1 0 0 -1 0 0 -1 0 0 -1 0 0 -1 0 0 -1 0 0 -1 0 0 -1 0 0 -1 0 0 -1 0 0 0 -1 0 0 -1 0 0 -1 0 0 -1 0 1 0 0 1 0 0 1 0 0 1 0 0 -1 0 0 -1 0 0 -1 0 0 -1 0 0 0 1 0 0 1 0 0 1 0 0 1 0 0 1 0 0 1 0 0 1 0 0 1 0 -1 0 0 -1 0 0 -1 0 0 -1 0 0 0 1 0 0 1 0 0 1 0 0 1 0 1 0 0 1 0 0 1 0 0 1 0 0 0 -1 0 0 -1 0 0 -1 0 0 -1 0 -1 0 0 -1 0 0 -1 0 0 -1 0 0 0 1 0 0 1 0 0 1 0 0 1 0 -1 0 0 -1 0 0 -1 0 0 -1 0 0 0 1 0 0 1 0 0 1 0 0 1 0 1 0 0 1 0 0 1 0 0 1 0 0 0 -1 0 0 -1 0 0 -1 0 0 -1 0 -1 0 0 -1 0 0 -1 0 0 -1 0 0 0 1 0 0 1 0 0 1 0 0 1 0 0 -1 0 0 -1 0 0 -1 0 0 -1 0 1 0 0 1 0 0 1 0 0 1 0 0 0 1 0 0 1 0 0 1 0 0 1 0 0 -1 0 0 -1 0 0 -1 0 0 -1 0 1 0 0 1 0 0 1 0 0 1 0 0 1 0 0 1 0 0 1 0 0 1 0 0 0 1 0 0 1 0 0 1 0 0 1 0 1 0 0 1 0 0 1 0 0 1 0 0 0 -1 0 0 -1 0 0 -1 0 0 -1 0 1 0 0 1 0 0 1 0 0 1 0 0 0 1 0 0 1 0 0 1 0 0 1 0 1 0 0 1 0 0 1 0 0 1 0 0 0 -1 0 0 -1 0 0 -1 0 0 -1 0 -1 0 0 -1 0 0 -1 0 0 -1 0 0 0 -1 0 0 -1 0 0 -1 0 0 -1 0 -1 0 0 -1 0 0 -1 0 0 -1 0 0 0 1 0 0 1 0 0 1 0 0 1 0 -1 0 0 -1 0 0 -1 0 0 -1 0 0 0 -1 0 0 -1 0 0 -1 0 0 -1 0 1 0 0 1 0 0 1 0 0 1 0 0 0 -1 0 0 -1 0 0 -1 0 0 -1 0 -1 0 0 -1 0 0 -1 0 0 -1 0 0 0 -1 0 0 -1 0 0 -1 0 0 -1 0 1 0 0 1 0 0 1 0 0 1 0 0 0 1 0 0 1 0 0 1 0 0 1 0 1 0 0 1 0 0 1 0 0 1 0 0 0 -1 0 0 -1 0 0 -1 0 0 -1 0 -1 0 0 -1 0 0 -1 0 0 -1 0 0 0 -1 0 0 -1 0 0 -1 0 0 -1 0 1 0 0 1 0 0 1 0 0 1 0 0 0 -1 0 0 -1 0 0 -1 0 0 -1 0 1 0 0 1 0 0 1 0 0 1 0 0 0 1 0 0 1 0 0 1 0 0 1 0 -1 0 0 -1 0 0 -1 0 0 -1 0 0 0 1 0 0 1 0 0 1 0 0 1 0 1 0 0 1 0 0 1 0 0 1 0 0 0 1 0 0 1 0 0 1 0 0 1 0 -1 0 0 -1 0 0 -1 0 0 -1 0 0 0 1 0 0 1 0 0 1 0 0 1 0 1 0 0 1 0 0 1 0 0 1 0 0 0 1 0 0 1 0 0 1 0 0 1 0 -1 0 0 -1 0 0 -1 0 0 -1 0 0 0 -1 0 0 -1 0 0 -1 0 0 -1 0 -1 0 0 -1 0 0 -1 0 0 -1 0 0 0 0 1 0 0 1 0 0 1 0 0 1 0 0 1 0 0 1 0 0 1 0 0 1 0 -1 0 0 -1 0 0 -1 0 0 -1 0 -1 0 0 -1 0 0 -1 0 0 -1 0 0 0 1 0 0 1 0 0 1 0 0 1 0 1 0 0 1 0 0 1 0 0 1 0 0 0 -1 0 0 -1 0 0 -1 0 0 -1 0 1 0 0 1 0 0 1 0 0 1 0 0 0 0 1 0 0 1 0 0 1 0 0 1 0 0 1 0 0 1 1 0 0 1 0 0 1 0 0 1 0 0 1 0 0 1 0 0 0 1 0 0 1 0 0 1 0 0 1 0 0 1 0 0 1 0 0 1 0 0 1 0 -1 0 0 -1 0 0 -1 0 0 -1 0 0 -1 0 0 -1 0 0 0 -1 0 0 -1 0 0 -1 0 0 -1 0 0 0 -1 0 0 -1 0 0 -1 0 0 -1 1 0 0 1 0 0 1 0 0 1 0 0 0 -1 0 0 -1 0 0 -1 0 0 -1 0 -1 0 0 -1 0 0 -1 0 0 -1 0 0 0 1 0 0 1 0 0 1 0 0 1 0 0 0 1 0 0 1 0 0 1 0 0 1 </float_array>
					<technique_common>
						<accessor count="624" source="#geo_0-Normals-array" stride="3">
							<param name="X" type="float"/>
							<param name="Y" type="float"/>
							<param name="Z" type="float"/>
						</accessor>
					</technique_common>
				</source>
				<vertices id="geo_0-Vertex">
					<input semantic="POSITION" source="#geo_0-Position"/>
				</vertices>
				<triangles count="438" material="Steel_-_Satin">
					<input offset="0" semantic="VERTEX" source="#geo_0-Vertex"/>
					<input offset="1" semantic="NORMAL"  source="#geo_0-Normals"/>
					<p>0 0 1 1 2 2 2 2 1 1 3 3 2 2 3 3 4 4 5 5 6 6 0 0 0 0 6 6 7 7 0 0 7 7 8 8 8 8 7 7 9 9 9 9 7 7 10 10 9 9 10 10 11 11 6 6 5 5 12 12 12 12 5 5 13 13 12 12 13 13 14 14 14 14 13 13 15 15 15 15 13 13 16 16 15 15 16 16 4 4 4 4 16 16 17 17 4 4 17 17 2 2 18 18 19 19 20 20 20 20 19 19 21 21 20 20 21 21 22 22 18 18 23 23 19 19 19 19 23 23 24 24 24 24 23 23 25 25 24 24 25 25 26 26 26 26 25 25 27 27 27 27 25 25 28 28 27 27 28 28 29 29 30 30 1 1 29 29 29 29 1 1 31 31 29 29 31 31 27 27 32 32 33 33 30 30 30 30 33 33 3 3 30 30 3 3 1 1 33 33 32 32 34 34 34 34 32 32 35 35 34 34 35 35 36 36 37 37 38 38 36 36 36 36 38 38 39 39 36 36 39 39 34 34 37 37 40 40 38 38 38 38 40 40 41 41 41 41 40 40 42 42 41 41 42 42 43 43 43 43 42 42 44 44 44 44 42 42 45 45 44 44 45 45 46 46 47 47 48 48 46 46 46 46 48 48 49 49 46 46 49 49 44 44 48 48 47 47 50 50 50 50 47 47 51 51 50 50 51 51 52 52 52 52 51 51 53 53 52 52 53 53 54 54 50 50 55 55 48 48 48 48 55 55 56 56 56 56 55 55 57 57 56 56 57 57 58 58 58 58 57 57 59 59 59 59 57 57 60 60 48 48 61 61 49 49 9 9 11 11 62 62 62 62 11 11 63 63 62 62 63 63 64 64 64 64 63 63 8 8 8 8 63 63 0 0 63 63 1 1 0 0 65 65 66 66 22 22 22 22 66 66 67 67 22 22 67 67 68 68 68 68 67 67 69 69 70 70 71 71 66 66 66 66 71 71 72 72 66 66 72 72 73 73 74 74 75 75 71 71 71 71 75 75 76 76 71 71 76 76 77 77 78 78 79 79 74 74 74 74 79 79 80 80 74 74 80 80 75 75 75 75 80 80 81 81 75 75 81 81 82 82 82 82 81 81 83 83 83 83 81 81 84 84 84 84 81 81 85 85 85 85 81 81 86 86 86 86 81 81 87 87 86 86 87 87 88 88 88 88 87 87 89 89 89 89 87 87 90 90 90 90 87 87 91 91 91 91 87 87 92 92 92 92 87 87 93 93 93 93 87 87 94 94 94 94 87 87 95 95 95 95 87 87 96 96 96 96 87 87 97 97 97 97 87 87 98 98 98 98 87 87 99 99 99 99 87 87 100 100 100 100 87 87 101 101 101 101 87 87 102 102 101 101 102 102 103 103 103 103 102 102 104 104 104 104 102 102 105 105 105 105 102 102 106 106 106 106 102 102 107 107 107 107 102 102 108 108 108 108 102 102 109 109 109 109 102 102 110 110 110 110 102 102 111 111 111 111 102 102 112 112 112 112 102 102 113 113 113 113 102 102 114 114 114 114 102 102 115 115 114 114 115 115 116 116 116 116 115 115 117 117 117 117 115 115 118 118 118 118 115 115 119 119 119 119 115 115 120 120 120 120 115 115 121 121 121 121 115 115 122 122 121 121 122 122 123 123 123 123 122 122 124 124 124 124 122 122 125 125 125 125 122 122 126 126 126 126 122 122 127 127 126 126 127 127 128 128 128 128 127 127 129 129 128 128 129 129 130 130 130 130 129 129 131 131 131 131 129 129 132 132 132 132 129 129 133 133 133 133 129 129 134 134 134 134 129 129 135 135 135 135 129 129 67 67 135 135 67 67 136 136 136 136 67 67 137 137 137 137 67 67 138 138 138 138 67 67 139 139 139 139 67 67 140 140 140 140 67 67 141 141 141 141 67 67 142 142 142 142 67 67 143 143 143 143 67 67 144 144 144 144 67 67 145 145 145 145 67 67 66 66 145 145 66 66 146 146 146 146 66 66 147 147 147 147 66 66 148 148 148 148 66 66 149 149 149 149 66 66 150 150 150 150 66 66 151 151 151 151 66 66 152 152 152 152 66 66 153 153 153 153 66 66 154 154 154 154 66 66 73 73 78 78 155 155 79 79 79 79 155 155 156 156 156 156 155 155 157 157 157 157 155 155 158 158 157 157 158 158 159 159 159 159 158 158 160 160 160 160 158 158 87 87 87 87 158 158 102 102 161 161 162 162 102 102 102 102 162 162 163 163 102 102 163 163 164 164 164 164 163 163 165 165 165 165 163 163 166 166 165 165 166 166 167 167 168 168 169 169 161 161 161 161 169 169 162 162 169 169 170 170 162 162 162 162 170 170 171 171 172 172 173 173 163 163 163 163 173 173 174 174 163 163 174 174 175 175 175 175 174 174 176 176 176 176 174 174 177 177 176 176 177 177 178 178 178 178 177 177 172 172 172 172 177 177 179 179 172 172 179 179 173 173 176 176 178 178 180 180 180 180 178 178 181 181 180 180 181 181 182 182 182 182 181 181 183 183 182 182 183 183 184 184 181 181 185 185 183 183 183 183 185 185 186 186 186 186 185 185 187 187 187 187 185 185 188 188 187 187 188 188 189 189 189 189 188 188 190 190 190 190 188 188 191 191 190 190 191 191 192 192 192 192 191 191 182 182 182 182 191 191 180 180 191 191 193 193 180 180 180 180 193 193 194 194 194 194 193 193 195 195 194 194 195 195 175 175 175 175 195 195 166 166 175 175 166 166 163 163 195 195 193 193 196 196 196 196 193 193 127 127 196 196 127 127 167 167 167 167 127 127 122 122 167 167 122 122 165 165 129 129 197 197 67 67 68 68 20 20 22 22 77 77 198 198 71 71 71 71 198 198 199 199 71 71 199 199 200 200 200 200 201 201 71 71 71 71 201 201 72 72 182 182 184 184 189 189 189 189 184 184 187 187 81 81 80 80 159 159 159 159 80 80 157 157 164 164 115 115 102 102 202 202 203 203 204 204 204 204 203 203 205 205 206 206 207 207 208 208 208 208 207 207 209 209 210 210 211 211 212 212 212 212 211 211 213 213 214 214 215 215 216 216 216 216 215 215 217 217 218 218 219 219 220 220 220 220 219 219 221 221 222 222 223 223 224 224 224 224 223 223 225 225 226 226 227 227 228 228 228 228 227 227 229 229 230 230 231 231 232 232 232 232 231 231 233 233 234 234 235 235 236 236 236 236 235 235 237 237 238 238 239 239 240 240 240 240 239 239 241 241 242 242 243 243 244 244 244 244 243 243 245 245 246 246 247 247 248 248 248 248 247 247 249 249 250 250 251 251 252 252 252 252 251 251 253 253 254 254 255 255 256 256 256 256 255 255 257 257 258 258 259 259 260 260 260 260 259 259 261 261 262 262 263 263 264 264 264 264 263 263 265 265 266 266 267 267 268 268 268 268 267 267 269 269 270 270 271 271 272 272 272 272 271 271 273 273 274 274 275 275 276 276 276 276 275 275 277 277 278 278 279 279 280 280 280 280 279 279 281 281 282 282 283 283 284 284 284 284 283 283 285 285 286 286 287 287 288 288 288 288 287 287 289 289 290 290 291 291 292 292 292 292 291 291 293 293 294 294 295 295 296 296 296 296 295 295 297 297 298 298 299 299 300 300 300 300 299 299 301 301 302 302 303 303 304 304 304 304 303 303 305 305 306 306 307 307 308 308 308 308 307 307 309 309 310 310 311 311 312 312 312 312 311 311 313 313 314 314 315 315 316 316 316 316 315 315 317 317 318 318 319 319 320 320 320 320 319 319 321 321 322 322 323 323 324 324 324 324 323 323 325 325 326 326 327 327 328 328 328 328 327 327 329 329 330 330 331 331 332 332 332 332 331 331 333 333 334 334 335 335 336 336 336 336 335 335 337 337 338 338 339 339 340 340 340 340 339 339 341 341 342 342 343 343 344 344 344 344 343 343 345 345 346 346 347 347 348 348 348 348 347 347 349 349 350 350 351 351 352 352 352 352 351 351 353 353 354 354 355 355 356 356 356 356 355 355 357 357 358 358 359 359 360 360 360 360 359 359 361 361 362 362 363 363 364 364 364 364 363 363 365 365 366 366 367 367 368 368 368 368 367 367 369 369 370 370 371 371 372 372 372 372 371 371 373 373 374 374 375 375 376 376 376 376 375 375 377 377 378 378 379 379 380 380 380 380 379 379 381 381 382 382 383 383 384 384 384 384 383 383 385 385 386 386 387 387 388 388 388 388 387 387 389 389 390 390 391 391 392 392 392 392 391 391 393 393 394 394 395 395 396 396 396 396 395 395 397 397 398 398 399 399 400 400 400 400 399 399 401 401 402 402 403 403 404 404 404 404 403 403 405 405 406 406 407 407 408 408 408 408 407 407 409 409 410 410 411 411 412 412 412 412 411 411 413 413 414 414 415 415 416 416 416 416 415 415 417 417 418 418 419 419 420 420 420 420 419 419 421 421 422 422 423 423 424 424 424 424 423 423 425 425 426 426 427 427 428 428 428 428 427 427 429 429 430 430 431 431 432 432 432 432 431 431 433 433 434 434 435 435 436 436 436 436 435 435 437 437 438 438 439 439 440 440 440 440 439 439 441 441 442 442 443 443 444 444 444 444 443 443 445 445 446 446 447 447 448 448 448 448 447 447 449 449 450 450 451 451 452 452 452 452 451 451 453 453 454 454 455 455 456 456 456 456 455 455 457 457 458 458 459 459 460 460 460 460 459 459 461 461 462 462 463 463 464 464 464 464 463 463 465 465 466 466 467 467 468 468 468 468 467 467 469 469 470 470 471 471 472 472 472 472 471 471 473 473 474 474 475 475 476 476 476 476 475 475 477 477 478 478 479 479 480 480 480 480 479 479 481 481 482 482 483 483 484 484 484 484 483 483 485 485 486 486 487 487 488 488 488 488 487 487 489 489 490 490 491 491 492 492 492 492 491 491 493 493 494 494 495 495 496 496 496 496 495 495 497 497 498 498 499 499 500 500 500 500 499 499 501 501 502 502 503 503 504 504 504 504 503 503 505 505 506 506 507 507 508 508 508 508 507 507 509 509 510 510 511 511 512 512 512 512 511 511 513 513 514 514 515 515 516 516 516 516 515 515 517 517 518 518 519 519 520 520 520 520 519 519 521 521 522 522 523 523 524 524 524 524 523 523 525 525 526 526 527 527 528 528 528 528 527 527 529 529 530 530 531 531 532 532 532 532 531 531 533 533 534 534 535 535 536 536 536 536 535 535 537 537 538 538 539 539 540 540 540 540 539 539 541 541 542 542 543 543 544 544 544 544 543 543 545 545 546 546 547 547 548 548 548 548 547 547 549 549 550 550 551 551 552 552 552 552 551 551 553 553 554 554 555 555 556 556 556 556 555 555 557 557 558 558 559 559 560 560 560 560 559 559 561 561 562 562 563 563 564 564 564 564 563 563 565 565 566 566 567 567 568 568 568 568 567 567 569 569 570 570 571 571 572 572 572 572 571 571 573 573 573 573 571 571 574 574 574 574 571 571 575 575 576 576 577 577 578 578 578 578 577 577 579 579 579 579 577 577 580 580 580 580 577 577 581 581 582 582 583 583 584 584 584 584 583 583 585 585 584 584 585 585 586 586 586 586 585 585 587 587 588 588 589 589 583 583 583 583 589 589 585 585 590 590 591 591 592 592 592 592 591 591 593 593 592 592 593 593 594 594 594 594 595 595 592 592 596 596 597 597 598 598 598 598 597 597 599 599 600 600 601 601 602 602 602 602 601 601 603 603 604 604 605 605 606 606 606 606 605 605 607 607 608 608 609 609 610 610 610 610 609 609 611 611 612 612 613 613 614 614 614 614 613 613 615 615 616 616 617 617 618 618 618 618 617 617 619 619 620 620 621 621 622 622 622 622 621 621 623 623 </p>
				</triangles>
			</mesh>
		</geometry>
		<geometry id="ID9" name="geo_1">
			<mesh>
				<source id="geo_1-Position">
					<float_array count="216" id="geo_1-Position-array">750 -1500 0 750 -1600 0 750 -1500 50 750 -1600 50 750 -1600 0 850 -1600 0 750 -1600 50 850 -1600 50 -150 -1650 0 -150 -1700 0 -150 -1650 50 -150 -1700 50 -150 -1700 0 -100 -1700 0 -150 -1700 50 -100 -1700 50 -850 -1750 0 -850 -1800 0 -850 -1750 50 -850 -1800 50 -800 -1800 0 -800 -1750 0 -800 -1800 50 -800 -1750 50 -850 -1500 0 -900 -1500 0 -850 -1500 50 -900 -1500 50 -900 -1550 0 -850 -1550 0 -900 -1550 50 -850 -1550 50 -50 -1400 0 -100 -1400 0 -50 -1400 50 -100 -1400 50 -50 -1450 0 -50 -1400 0 -50 -1450 50 -50 -1400 50 550 -1650 0 550 -1750 0 550 -1650 50 550 -1750 50 550 -1750 0 650 -1750 0 550 -1750 50 650 -1750 50 200 -1750 0 300 -1750 0 200 -1750 50 300 -1750 50 200 -1650 0 200 -1750 0 200 -1650 50 200 -1750 50 250 -1450 0 250 -1350 0 250 -1450 50 250 -1350 50 150 -1350 0 150 -1450 0 150 -1350 50 150 -1450 50 -750 -1350 0 -700 -1350 0 -750 -1350 50 -700 -1350 50 -250 -1350 0 -200 -1350 0 -250 -1350 50 -200 -1350 50 </float_array>
					<technique_common>
						<accessor count="72" source="#geo_1-Position-array" stride="3">
							<param name="X" type="float"/>
							<param name="Y" type="float"/>
							<param name="Z" type="float"/>
						</accessor>
					</technique_common>
				</source>
				<source id="geo_1-Normals">
					<float_array count="216" id="geo_1-Normals-array">-1 0 0 -1 0 0 -1 0 0 -1 0 0 0 -1 0 0 -1 0 0 -1 0 0 -1 0 -1 0 0 -1 0 0 -1 0 0 -1 0 0 0 -1 0 0 -1 0 0 -1 0 0 -1 0 -1 0 0 -1 0 0 -1 0 0 -1 0 0 1 0 0 1 0 0 1 0 0 1 0 0 0 1 0 0 1 0 0 1 0 0 1 0 0 -1 0 0 -1 0 0 -1 0 0 -1 0 0 1 0 0 1 0 0 1 0 0 1 0 1 0 0 1 0 0 1 0 0 1 0 0 -1 0 0 -1 0 0 -1 0 0 -1 0 0 0 -1 0 0 -1 0 0 -1 0 0 -1 0 0 -1 0 0 -1 0 0 -1 0 0 -1 0 -1 0 0 -1 0 0 -1 0 0 -1 0 0 1 0 0 1 0 0 1 0 0 1 0 0 -1 0 0 -1 0 0 -1 0 0 -1 0 0 0 -1 0 0 -1 0 0 -1 0 0 -1 0 0 -1 0 0 -1 0 0 -1 0 0 -1 0 </float_array>
					<technique_common>
						<accessor count="72" source="#geo_1-Normals-array" stride="3">
							<param name="X" type="float"/>
							<param name="Y" type="float"/>
							<param name="Z" type="float"/>
						</accessor>
					</technique_common>
				</source>
				<vertices id="geo_1-Vertex">
					<input semantic="POSITION" source="#geo_1-Position"/>
				</vertices>
				<triangles count="36" material="Powder_Coat_(Red)">
					<input offset="0" semantic="VERTEX" source="#geo_1-Vertex"/>
					<input offset="1" semantic="NORMAL"  source="#geo_1-Normals"/>
					<p>0 0 1 1 2 2 2 2 1 1 3 3 4 4 5 5 6 6 6 6 5 5 7 7 8 8 9 9 10 10 10 10 9 9 11 11 12 12 13 13 14 14 14 14 13 13 15 15 16 16 17 17 18 18 18 18 17 17 19 19 20 20 21 21 22 22 22 22 21 21 23 23 24 24 25 25 26 26 26 26 25 25 27 27 28 28 29 29 30 30 30 30 29 29 31 31 32 32 33 33 34 34 34 34 33 33 35 35 36 36 37 37 38 38 38 38 37 37 39 39 40 40 41 41 42 42 42 42 41 41 43 43 44 44 45 45 46 46 46 46 45 45 47 47 48 48 49 49 50 50 50 50 49 49 51 51 52 52 53 53 54 54 54 54 53 53 55 55 56 56 57 57 58 58 58 58 57 57 59 59 60 60 61 61 62 62 62 62 61 61 63 63 64 64 65 65 66 66 66 66 65 65 67 67 68 68 69 69 70 70 70 70 69 69 71 71 </p>
				</triangles>
			</mesh>
		</geometry>
		<geometry id="ID12" name="geo_2">
			<mesh>
				<source id="geo_2-Position">
					<float_array count="216" id="geo_2-Position-array">850 -1500 0 750 -1500 0 850 -1500 50 750 -1500 50 850 -1600 0 850 -1500 0 850 -1600 50 850 -1500 50 -100 -1650 0 -150 -1650 0 -100 -1650 50 -150 -1650 50 -100 -1700 0 -100 -1650 0 -100 -1700 50 -100 -1650 50 -800 -1750 0 -850 -1750 0 -800 -1750 50 -850 -1750 50 -850 -1800 0 -800 -1800 0 -850 -1800 50 -800 -1800 50 -900 -1500 0 -900 -1550 0 -900 -1500 50 -900 -1550 50 -850 -1550 0 -850 -1500 0 -850 -1550 50 -850 -1500 50 -100 -1400 0 -100 -1450 0 -100 -1400 50 -100 -1450 50 -100 -1450 0 -50 -1450 0 -100 -1450 50 -50 -1450 50 650 -1650 0 550 -1650 0 650 -1650 50 550 -1650 50 650 -1750 0 650 -1650 0 650 -1750 50 650 -1650 50 300 -1750 0 300 -1650 0 300 -1750 50 300 -1650 50 300 -1650 0 200 -1650 0 300 -1650 50 200 -1650 50 150 -1450 0 250 -1450 0 150 -1450 50 250 -1450 50 250 -1350 0 150 -1350 0 250 -1350 50 150 -1350 50 -700 -1350 0 -700 -1300 0 -700 -1350 50 -700 -1300 50 -200 -1350 0 -200 -1300 0 -200 -1350 50 -200 -1300 50 </float_array>
					<technique_common>
						<accessor count="72" source="#geo_2-Position-array" stride="3">
							<param name="X" type="float"/>
							<param name="Y" type="float"/>
							<param name="Z" type="float"/>
						</accessor>
					</technique_common>
				</source>
				<source id="geo_2-Normals">
					<float_array count="216" id="geo_2-Normals-array">0 1 0 0 1 0 0 1 0 0 1 0 1 0 0 1 0 0 1 0 0 1 0 0 0 1 0 0 1 0 0 1 0 0 1 0 1 0 0 1 0 0 1 0 0 1 0 0 0 1 0 0 1 0 0 1 0 0 1 0 0 -1 0 0 -1 0 0 -1 0 0 -1 0 -1 0 0 -1 0 0 -1 0 0 -1 0 0 1 0 0 1 0 0 1 0 0 1 0 0 -1 0 0 -1 0 0 -1 0 0 -1 0 0 0 -1 0 0 -1 0 0 -1 0 0 -1 0 0 1 0 0 1 0 0 1 0 0 1 0 1 0 0 1 0 0 1 0 0 1 0 0 1 0 0 1 0 0 1 0 0 1 0 0 0 1 0 0 1 0 0 1 0 0 1 0 0 -1 0 0 -1 0 0 -1 0 0 -1 0 0 1 0 0 1 0 0 1 0 0 1 0 1 0 0 1 0 0 1 0 0 1 0 0 1 0 0 1 0 0 1 0 0 1 0 0 </float_array>
					<technique_common>
						<accessor count="72" source="#geo_2-Normals-array" stride="3">
							<param name="X" type="float"/>
							<param name="Y" type="float"/>
							<param name="Z" type="float"/>
						</accessor>
					</technique_common>
				</source>
				<vertices id="geo_2-Vertex">
					<input semantic="POSITION" source="#geo_2-Position"/>
				</vertices>
				<triangles count="36" material="Powder_Coat_(Blue)">
					<input offset="0" semantic="VERTEX" source="#geo_2-Vertex"/>
					<input offset="1" semantic="NORMAL"  source="#geo_2-Normals"/>
					<p>0 0 1 1 2 2 2 2 1 1 3 3 4 4 5 5 6 6 6 6 5 5 7 7 8 8 9 9 10 10 10 10 9 9 11 11 12 12 13 13 14 14 14 14 13 13 15 15 16 16 17 17 18 18 18 18 17 17 19 19 20 20 21 21 22 22 22 22 21 21 23 23 24 24 25 25 26 26 26 26 25 25 27 27 28 28 29 29 30 30 30 30 29 29 31 31 32 32 33 33 34 34 34 34 33 33 35 35 36 36 37 37 38 38 38 38 37 37 39 39 40 40 41 41 42 42 42 42 41 41 43 43 44 44 45 45 46 46 46 46 45 45 47 47 48 48 49 49 50 50 50 50 49 49 51 51 52 52 53 53 54 54 54 54 53 53 55 55 56 56 57 57 58 58 58 58 57 57 59 59 60 60 61 61 62 62 62 62 61 61 63 63 64 64 65 65 66 66 66 66 65 65 67 67 68 68 69 69 70 70 70 70 69 69 71 71 </p>
				</triangles>
			</mesh>
		</geometry>
		<geometry id="ID15" name="geo_3">
			<mesh>
				<source id="geo_3-Position">
					<float_array count="309" id="geo_3-Position-array">750 -1600 50 850 -1600 50 750 -1500 50 850 -1500 50 -150 -1700 50 -100 -1700 50 -150 -1650 50 -100 -1650 50 -850 -1800 50 -800 -1800 50 -850 -1750 50 -800 -1750 50 -900 -1550 50 -850 -1550 50 -900 -1500 50 -850 -1500 50 -100 -1450 50 -50 -1450 50 -100 -1400 50 -50 -1400 50 550 -1750 50 650 -1750 50 550 -1650 50 650 -1650 50 300 -1650 50 200 -1650 50 300 -1750 50 200 -1750 50 -591.873 -1551.3 50 -591.873 -1551.3 0 -600 -1600 50 -600 -1600 0 -600 -1600 50 -600 -1600 0 -591.873 -1648.7 50 -591.873 -1648.7 0 -568.371 -1692.13 50 -568.371 -1692.13 0 -532.042 -1725.57 50 -532.042 -1725.57 0 -486.823 -1745.41 50 -486.823 -1745.41 0 -437.613 -1749.49 50 -437.613 -1749.49 0 -389.746 -1737.37 50 -389.746 -1737.37 0 -348.408 -1710.36 50 -348.408 -1710.36 0 -318.079 -1671.39 50 -318.079 -1671.39 0 -302.046 -1624.69 50 -302.046 -1624.69 0 -302.046 -1575.31 50 -302.046 -1575.31 0 -318.079 -1528.61 50 -318.079 -1528.61 0 -348.408 -1489.64 50 -348.408 -1489.64 0 -389.746 -1462.63 50 -389.746 -1462.63 0 -437.613 -1450.51 50 -437.613 -1450.51 0 -486.823 -1454.59 50 -486.823 -1454.59 0 -532.042 -1474.43 50 -532.042 -1474.43 0 -568.371 -1507.87 50 -568.371 -1507.87 0 -600 -1600 50 -591.873 -1648.7 50 -591.873 -1551.3 50 -568.371 -1507.87 50 -568.371 -1692.13 50 -532.042 -1474.43 50 -532.042 -1725.57 50 -486.823 -1454.59 50 -486.823 -1745.41 50 -437.613 -1450.51 50 -437.613 -1749.49 50 -389.746 -1462.63 50 -348.408 -1489.64 50 -318.079 -1528.61 50 -302.046 -1575.31 50 -302.046 -1624.69 50 -318.079 -1671.39 50 -348.408 -1710.36 50 -389.746 -1737.37 50 250 -1350 50 150 -1350 50 250 -1450 50 150 -1450 50 -486.823 -1745.41 50 -486.823 -1745.41 50 -486.823 -1745.41 0 -437.613 -1749.49 50 -437.613 -1749.49 0 -437.613 -1749.49 0 -437.613 -1450.51 50 -437.613 -1450.51 50 -437.613 -1450.51 0 -486.823 -1454.59 50 -486.823 -1454.59 0 -486.823 -1454.59 0 </float_array>
					<technique_common>
						<accessor count="103" source="#geo_3-Position-array" stride="3">
							<param name="X" type="float"/>
							<param name="Y" type="float"/>
							<param name="Z" type="float"/>
						</accessor>
					</technique_common>
				</source>
				<source id="geo_3-Normals">
					<float_array count="309" id="geo_3-Normals-array">0 0 1 0 0 1 0 0 1 0 0 1 0 0 1 0 0 1 0 0 1 0 0 1 0 0 1 0 0 1 0 0 1 0 0 1 0 0 1 0 0 1 0 0 1 0 0 1 0 0 1 0 0 1 0 0 1 0 0 1 0 0 1 0 0 1 0 0 1 0 0 1 0 0 1 0 0 1 0 0 1 0 0 1 -0.945817 0.324699 0 -0.945817 0.324699 0 -1 0 0 -1 0 0 -1 0 0 -1 0 0 -0.945817 -0.324699 0 -0.945817 -0.324699 0 -0.789141 -0.614213 0 -0.789141 -0.614213 0 -0.546948 -0.837166 0 -0.546948 -0.837166 0 -0.245485 -0.9694 0 -0.245485 -0.9694 0 0.0825793 -0.996584 0 0.0825793 -0.996584 0 0.401695 -0.915773 0 0.401695 -0.915773 0 0.677282 -0.735724 0 0.677282 -0.735724 0 0.879474 -0.475947 0 0.879474 -0.475947 0 0.986361 -0.164595 0 0.986361 -0.164595 0 0.986361 0.164595 0 0.986361 0.164595 0 0.879474 0.475947 0 0.879474 0.475947 0 0.677282 0.735724 0 0.677282 0.735724 0 0.401695 0.915773 0 0.401695 0.915773 0 0.0825793 0.996584 0 0.0825793 0.996584 0 -0.245485 0.9694 0 -0.245485 0.9694 0 -0.546948 0.837166 0 -0.546948 0.837166 0 -0.789141 0.614213 0 -0.789141 0.614213 0 0 0 1 0 0 1 0 0 1 0 0 1 0 0 1 0 0 1 0 0 1 0 0 1 0 0 1 0 0 1 0 0 1 0 0 1 0 0 1 0 0 1 0 0 1 0 0 1 0 0 1 0 0 1 0 0 1 0 0 1 0 0 1 0 0 1 0 0 1 -0.245485 -0.9694 0 -0.245485 -0.9694 0 -0.245485 -0.9694 0 0.0825793 -0.996584 0 0.0825793 -0.996584 0 0.0825793 -0.996584 0 0.0825793 0.996584 0 0.0825793 0.996584 0 0.0825793 0.996584 0 -0.245485 0.9694 0 -0.245485 0.9694 0 -0.245485 0.9694 0 </float_array>
					<technique_common>
						<accessor count="103" source="#geo_3-Normals-array" stride="3">
							<param name="X" type="float"/>
							<param name="Y" type="float"/>
							<param name="Z" type="float"/>
						</accessor>
					</technique_common>
				</source>
				<vertices id="geo_3-Vertex">
					<input semantic="POSITION" source="#geo_3-Position"/>
				</vertices>
				<triangles count="71" material="Powder_Coat_(Green)">
					<input offset="0" semantic="VERTEX" source="#geo_3-Vertex"/>
					<input offset="1" semantic="NORMAL"  source="#geo_3-Normals"/>
					<p>0 0 1 1 2 2 2 2 1 1 3 3 4 4 5 5 6 6 6 6 5 5 7 7 8 8 9 9 10 10 10 10 9 9 11 11 12 12 13 13 14 14 14 14 13 13 15 15 16 16 17 17 18 18 18 18 17 17 19 19 20 20 21 21 22 22 22 22 21 21 23 23 24 24 25 25 26 26 26 26 25 25 27 27 28 28 29 29 30 30 30 30 29 29 31 31 32 32 33 33 34 34 34 34 33 33 35 35 34 34 35 35 36 36 36 36 35 35 37 37 36 36 37 37 38 38 38 38 37 37 39 39 38 38 39 39 91 91 92 92 39 39 93 93 40 40 41 41 42 42 42 42 41 41 43 43 94 94 95 95 44 44 44 44 96 96 45 45 44 44 45 45 46 46 46 46 45 45 47 47 46 46 47 47 48 48 48 48 47 47 49 49 48 48 49 49 50 50 50 50 49 49 51 51 50 50 51 51 52 52 52 52 51 51 53 53 52 52 53 53 54 54 54 54 53 53 55 55 54 54 55 55 56 56 56 56 55 55 57 57 56 56 57 57 58 58 58 58 57 57 59 59 58 58 59 59 97 97 98 98 59 59 99 99 60 60 61 61 62 62 62 62 61 61 63 63 100 100 101 101 64 64 64 64 102 102 65 65 64 64 65 65 66 66 66 66 65 65 67 67 66 66 67 67 28 28 28 28 67 67 29 29 68 68 69 69 70 70 70 70 69 69 71 71 71 71 69 69 72 72 71 71 72 72 73 73 73 73 72 72 74 74 73 73 74 74 75 75 75 75 74 74 76 76 75 75 76 76 77 77 77 77 76 76 78 78 77 77 78 78 79 79 79 79 78 78 80 80 80 80 78 78 81 81 81 81 78 78 82 82 82 82 78 78 83 83 83 83 78 78 84 84 84 84 78 78 85 85 85 85 78 78 86 86 87 87 88 88 89 89 89 89 88 88 90 90 </p>
				</triangles>
			</mesh>
		</geometry>
		<geometry id="ID18" name="geo_4">
			<mesh>
				<source id="geo_4-Position">
					<float_array count="276" id="geo_4-Position-array">-700 705 50 -700 695 50 -400 705 50 700 695 50 400 705 50 700 705 50 -400 1295 50 400 1295 50 -1000 1305 50 1000 1305 50 995 1295 50 1000 1300 50 1005 1300 50 995 0 50 995 -200 50 900 -150 50 500 -200 50 500 -150 50 900 0 50 995 -950 50 1005 -2505 50 995 -1300 50 995 -1900 50 700 -950 50 650 -950 50 200 -950 50 700 -500 50 650 -500 50 200 -750 50 0 -750 50 0 -950 50 -200 -1300 50 -350 -1000 50 -250 -1300 50 -350 -1300 50 -400 -950 50 -400 -1000 50 -250 -1350 50 -200 -1350 50 995 -2200 50 405 -1900 50 91.5232 -2200 50 395 -1900 50 91.5232 -1900 50 405 -1500 50 395 -1500 50 995 -2495 50 -995 -2495 50 -1005 -2505 50 -995 -2200 50 -995 -1900 50 -100 -2200 50 -100 -1900 50 -995 -1300 50 -1005 1300 50 -995 400 50 -995 1295 50 -800 -600 50 -750 -1300 50 -550 -1000 50 -700 -1300 50 -550 -1300 50 -750 -1350 50 -700 -1350 50 -500 -1000 50 -500 -850 50 -100 -850 50 -100 -650 50 550 -600 50 300 -650 50 550 -850 50 300 -850 50 -800 -50 50 -450 -50 50 -250 -50 50 -250 -400 50 -450 -400 50 700 400 50 200 -50 50 400 -50 50 400 -300 50 200 -350 50 800 -400 50 50 -400 50 50 -350 50 800 -850 50 900 -850 50 900 -300 50 700 0 50 760 -50 50 760 0 50 -1000 1300 50 </float_array>
					<technique_common>
						<accessor count="92" source="#geo_4-Position-array" stride="3">
							<param name="X" type="float"/>
							<param name="Y" type="float"/>
							<param name="Z" type="float"/>
						</accessor>
					</technique_common>
				</source>
				<source id="geo_4-Normals">
					<float_array count="276" id="geo_4-Normals-array">0 0 1 0 0 1 0 0 1 0 0 1 0 0 1 0 0 1 0 0 1 0 0 1 0 0 1 0 0 1 0 0 1 0 0 1 0 0 1 0 0 1 0 0 1 0 0 1 0 0 1 0 0 1 0 0 1 0 0 1 0 0 1 0 0 1 0 0 1 0 0 1 0 0 1 0 0 1 0 0 1 0 0 1 0 0 1 0 0 1 0 0 1 0 0 1 0 0 1 0 0 1 0 0 1 0 0 1 0 0 1 0 0 1 0 0 1 0 0 1 0 0 1 0 0 1 0 0 1 0 0 1 0 0 1 0 0 1 0 0 1 0 0 1 0 0 1 0 0 1 0 0 1 0 0 1 0 0 1 0 0 1 0 0 1 0 0 1 0 0 1 0 0 1 0 0 1 0 0 1 0 0 1 0 0 1 0 0 1 0 0 1 0 0 1 0 0 1 0 0 1 0 0 1 0 0 1 0 0 1 0 0 1 0 0 1 0 0 1 0 0 1 0 0 1 0 0 1 0 0 1 0 0 1 0 0 1 0 0 1 0 0 1 0 0 1 0 0 1 0 0 1 0 0 1 0 0 1 0 0 1 0 0 1 0 0 1 0 0 1 0 0 1 0 0 1 </float_array>
					<technique_common>
						<accessor count="92" source="#geo_4-Normals-array" stride="3">
							<param name="X" type="float"/>
							<param name="Y" type="float"/>
							<param name="Z" type="float"/>
						</accessor>
					</technique_common>
				</source>
				<vertices id="geo_4-Vertex">
					<input semantic="POSITION" source="#geo_4-Position"/>
				</vertices>
				<triangles count="92" material="Powder_Coat_(Yellow)">
					<input offset="0" semantic="VERTEX" source="#geo_4-Vertex"/>
					<input offset="1" semantic="NORMAL"  source="#geo_4-Normals"/>
					<p>0 0 1 1 2 2 2 2 1 1 3 3 2 2 3 3 4 4 4 4 3 3 5 5 2 2 4 4 6 6 6 6 4 4 7 7 6 6 7 7 8 8 8 8 7 7 9 9 9 9 7 7 10 10 9 9 10 10 11 11 11 11 10 10 12 12 12 12 10 10 13 13 12 12 13 13 14 14 14 14 13 13 15 15 14 14 15 15 16 16 16 16 15 15 17 17 13 13 18 18 15 15 14 14 19 19 12 12 12 12 19 19 20 20 20 20 19 19 21 21 20 20 21 21 22 22 19 19 23 23 21 21 21 21 23 23 24 24 21 21 24 24 25 25 26 26 27 27 23 23 23 23 27 27 24 24 28 28 29 29 25 25 25 25 29 29 30 30 25 25 30 30 31 31 31 31 30 30 32 32 31 31 32 32 33 33 33 33 32 32 34 34 30 30 35 35 32 32 32 32 35 35 36 36 37 37 38 38 33 33 33 33 38 38 31 31 31 31 21 21 25 25 20 20 22 22 39 39 39 39 22 22 40 40 39 39 40 40 41 41 41 41 40 40 42 42 41 41 42 42 43 43 44 44 45 45 40 40 40 40 45 45 42 42 39 39 46 46 20 20 20 20 46 46 47 47 20 20 47 47 48 48 48 48 47 47 49 49 48 48 49 49 50 50 50 50 49 49 51 51 50 50 51 51 52 52 50 50 53 53 48 48 48 48 53 53 54 54 54 54 53 53 55 55 54 54 55 55 56 56 55 55 53 53 57 57 57 57 53 53 58 58 57 57 58 58 59 59 59 59 58 58 60 60 59 59 60 60 61 61 62 62 63 63 58 58 58 58 63 63 60 60 64 64 65 65 59 59 59 59 65 65 57 57 66 66 67 67 65 65 65 65 67 67 57 57 57 57 67 67 68 68 68 68 67 67 69 69 68 68 69 69 70 70 70 70 69 69 71 71 57 57 72 72 55 55 55 55 72 72 73 73 55 55 73 73 74 74 74 74 73 73 75 75 75 75 73 73 76 76 55 55 74 74 77 77 77 77 74 74 78 78 77 77 78 78 79 79 79 79 78 78 80 80 80 80 78 78 81 81 80 80 81 81 82 82 82 82 81 81 83 83 83 83 81 81 84 84 85 85 86 86 82 82 82 82 86 86 87 87 82 82 87 87 80 80 77 77 79 79 88 88 88 88 79 79 89 89 88 88 89 89 90 90 6 6 8 8 56 56 56 56 8 8 91 91 56 56 91 91 54 54 </p>
				</triangles>
			</mesh>
		</geometry>
	</library_geometries>
	<library_materials>
		<material id="ID19" name="Powder_Coat_(Yellow)">
			<instance_effect url="#ID20"/>
		</material>
		<material id="ID16" name="Powder_Coat_(Green)">
			<instance_effect url="#ID21"/>
		</material>
		<material id="ID10" name="Powder_Coat_(Red)">
			<instance_effect url="#ID22"/>
		</material>
		<material id="ID13" name="Powder_Coat_(Blue)">
			<instance_effect url="#ID23"/>
		</material>
		<material id="ID7" name="Steel_-_Satin">
			<instance_effect url="#ID24"/>
		</material>
	</library_materials>
	<library_effects>
		<effect id="ID20">
			<profile_COMMON>
				<newparam sid="ID27">
					<surface type="2D">
						<init_from>ID26</init_from>
					</surface>
				</newparam>
				<newparam sid="ID25">
					<sampler2D>
						<source>ID27</source>
					</sampler2D>
				</newparam>
				<technique sid="standard">
					<phong>
						<emission><color>0 0 0 1</color></emission>
						<ambient><color>0 0 0 1</color></ambient>
						<diffuse>
							<color>0.909804 0.678431 0.137255 1</color>
						</diffuse>
						<specular><color>1 1 1 1</color></specular>
						<transparent opaque="A_ONE"><color>1.0 1.0 1.0 1.0</color></transparent>
						<transparency><float>1</float></transparency>
					</phong>
				</technique>
			</profile_COMMON>
		</effect>
		<effect id="ID21">
			<profile_COMMON>
				<newparam sid="ID29">
					<surface type="2D">
						<init_from>ID26</init_from>
					</surface>
				</newparam>
				<newparam sid="ID28">
					<sampler2D>
						<source>ID29</source>
					</sampler2D>
				</newparam>
				<technique sid="standard">
					<phong>
						<emission><color>0 0 0 1</color></emission>
						<ambient><color>0 0 0 1</color></ambient>
						<diffuse>
							<color>0.266667 0.588235 0.282353 1</color>
						</diffuse>
						<specular><color>1 1 1 1</color></specular>
						<transparent opaque="A_ONE"><color>1.0 1.0 1.0 1.0</color></transparent>
						<transparency><float>1</float></transparency>
					</phong>
				</technique>
			</profile_COMMON>
		</effect>
		<effect id="ID22">
			<profile_COMMON>
				<newparam sid="ID31">
					<surface type="2D">
						<init_from>ID26</init_from>
					</surface>
				</newparam>
				<newparam sid="ID30">
					<sampler2D>
						<source>ID31</source>
					</sampler2D>
				</newparam>
				<technique sid="standard">
					<phong>
						<emission><color>0 0 0 1</color></emission>
						<ambient><color>0 0 0 1</color></ambient>
						<diffuse>
							<color>0.768627 0.207843 0.152941 1</color>
						</diffuse>
						<specular><color>1 1 1 1</color></specular>
						<transparent opaque="A_ONE"><color>1.0 1.0 1.0 1.0</color></transparent>
						<transparency><float>1</float></transparency>
					</phong>
				</technique>
			</profile_COMMON>
		</effect>
		<effect id="ID23">
			<profile_COMMON>
				<newparam sid="ID33">
					<surface type="2D">
						<init_from>ID26</init_from>
					</surface>
				</newparam>
				<newparam sid="ID32">
					<sampler2D>
						<source>ID33</source>
					</sampler2D>
				</newparam>
				<technique sid="standard">
					<phong>
						<emission><color>0 0 0 1</color></emission>
						<ambient><color>0 0 0 1</color></ambient>
						<diffuse>
							<color>0.188235 0.231373 0.588235 1</color>
						</diffuse>
						<specular><color>1 1 1 1</color></specular>
						<transparent opaque="A_ONE"><color>1.0 1.0 1.0 1.0</color></transparent>
						<transparency><float>1</float></transparency>
					</phong>
				</technique>
			</profile_COMMON>
		</effect>
		<effect id="ID24">
			<profile_COMMON>
				<technique sid="standard">
					<phong>
						<emission><color>0 0 0 1</color></emission>
						<ambient><color>0 0 0 1</color></ambient>
						<diffuse>
							<color>0.627451 0.627451 0.627451 1</color>
						</diffuse>
						<specular><color>1 1 1 1</color></specular>
						<transparent opaque="A_ONE"><color>1.0 1.0 1.0 1.0</color></transparent>
						<transparency><float>1</float></transparency>
					</phong>
				</technique>
			</profile_COMMON>
		</effect>
	</library_effects>
	<library_images>
		<image id="ID26" name="Img_1_1_mats_texture_orangepeel_height.png.png">
			<init_from>file:///C:\Users\DHARM BEER SINGH\AppData\Local\Autodesk\Common\Material Library\4.2.3\slib\resource\cloud\resource\1\1_mats_texture_orangepeel_height.png.png</init_from>
		</image>
	</library_images>
	<scene>
		<instance_visual_scene url="#Scene"/>
	</scene>
</COLLADA>
